<?xml version="1.0" encoding="UTF-8"?>
<svg id="Layer_2" xmlns="http://www.w3.org/2000/svg" viewBox="0 0 198.89 220.05">
  <defs>
    <style>
      .cls-1 {
        fill: #467fa3;
      }

      .cls-2 {
        fill: #fff;
      }

      .cls-3 {
        fill: #8aceab;
      }
    </style>
  </defs>
  <g id="Layer_1-2" data-name="Layer_1">
    <g>
      <path class="cls-1" d="M0,69.59c.19-1.28.36-2.56.56-3.84,1.47-9.42,6.24-16.72,14.46-21.51,19.68-11.47,39.45-22.79,59.18-34.17,3.88-2.24,7.67-4.64,11.67-6.64,9.69-4.83,19.4-4.56,28.78.81,23.03,13.19,46,26.46,68.96,39.78,8.39,4.87,13.3,12.24,14.79,21.83.29,1.84.44,3.73.44,5.59.03,25.93.11,51.87-.02,77.8-.06,11.72-5.14,20.87-15.38,26.82-23.02,13.36-46.04,26.72-69.19,39.86-9.74,5.53-19.89,5.49-29.62-.05-23.27-13.25-46.44-26.67-69.59-40.13-8.23-4.78-13.01-12.07-14.48-21.49C.36,152.97.19,151.68,0,150.4c0-26.94,0-53.87,0-80.81ZM119.88,144.36c.47-8.97-6.93-18.91-18.78-18.92-11.36-.01-18.79,9.17-18.93,18.62-.16,10.22,8.15,19.16,18.88,19.17,11.33,0,19.32-9.66,18.83-18.87ZM49.09,110.48c0,10.49,8.32,18.85,18.68,18.95,9.87.09,19.12-7.51,19.11-18.9,0-10.49-7.94-18.82-18.87-18.88-11.31-.06-19,9.1-18.92,18.83ZM166.38,57.25c-10.16-.45-18.6,8.38-18.97,17.98-.43,10.96,8.62,19.62,18.68,19.71,10.39.09,19.07-8.47,19.12-18.81.05-10.85-9.23-19.32-18.82-18.88ZM101.07,57.25c-9.71-.46-18.72,8.01-18.9,18.44-.19,10.55,8.5,19.14,18.67,19.24,10.95.11,18.93-9.13,19.14-18.41.24-10.86-9.03-19.75-18.91-19.27ZM34.1,163.2c10.38.02,19-8.41,18.97-18.73-.04-10.44-8.01-18.93-18.82-18.99-10.73-.06-18.83,8.41-18.94,18.6-.11,10.59,8.32,19.09,18.79,19.11ZM119.12,27.33c0-10.42-8.5-19.03-18.89-18.94-10.38.09-18.83,8.09-18.86,18.82-.04,10.74,8.41,18.85,18.87,18.93,10.34.09,18.88-8.5,18.88-18.82ZM100.19,174.77c-9.63-.09-18.82,7.67-18.82,18.84,0,10.36,8.04,18.88,18.92,18.85,11.01-.03,18.81-8.83,18.83-18.83.02-10.45-8.44-18.86-18.93-18.85ZM114.38,110.47c-.37,9.65,7.8,18.93,18.78,18.93,10.39,0,18.75-8.37,18.88-18.66.12-9.76-7.61-19.06-18.85-19.05-11.54.01-19.1,9.57-18.81,18.78ZM34.11,57.26c-9.87-.29-18.85,8.05-18.85,18.74,0,10.44,8.37,18.78,18.77,18.88,9.73.09,19.02-7.65,18.97-18.93-.05-11.59-9.76-19.06-18.89-18.69ZM185.14,144.31c.11-9.67-7.65-18.89-18.93-18.83-11.57.06-18.74,9.71-18.78,18.76-.05,9.38,7.58,18.93,18.84,18.95,10.48.02,18.88-8.4,18.88-18.88ZM68.02,36.64c-8.3,0-15.08,6.65-15,14.86.08,8.44,6.65,14.98,14.96,14.92,9.57-.06,14.96-7.9,14.93-14.83-.04-8.33-6.59-14.96-14.89-14.96ZM133.97,36.64c-8.28,0-14.97,6.57-15,14.72-.03,7.93,6.05,15.05,14.93,15.06,8.65,0,14.9-6.79,14.96-14.93.06-8.18-6.69-14.85-14.89-14.86ZM133.91,182.63c7.37.29,14.96-5.93,14.94-14.89-.02-8.67-7.28-14.83-14.9-14.87-7.49-.04-14.97,6.06-14.98,14.89,0,8.96,7.58,15.19,14.94,14.87ZM67.87,182.63c7.98.32,15.02-6.45,15.03-14.78,0-8.29-6.54-14.77-14.76-14.96-7.51-.18-15.04,5.9-15.12,14.87-.07,8.17,6.66,14.86,14.85,14.87ZM8.06,110.61c0,6.76,5.4,12.05,12.24,12.08,5.78.03,12.03-4.43,12.06-12.16.03-6.85-5.25-12.07-12.21-12.17-6.71-.1-12.11,5.46-12.1,12.25ZM190.91,110.57c.32-5.93-4.6-12.14-12.12-12.22-6.69-.07-12.08,5.43-12.09,12.15,0,6.82,5.33,12.11,12.15,12.19,6.46.07,12.38-5.55,12.06-12.12Z"/>
      <path class="cls-2" d="M119.88,144.36c.48,9.21-7.5,18.88-18.83,18.87-10.73,0-19.04-8.94-18.88-19.17.15-9.46,7.57-18.64,18.93-18.62,11.85.01,19.25,9.95,18.78,18.92Z"/>
      <path class="cls-2" d="M49.09,110.48c-.08-9.72,7.61-18.89,18.92-18.83,10.94.06,18.87,8.39,18.87,18.88,0,11.39-9.24,18.99-19.11,18.9-10.36-.1-18.68-8.46-18.68-18.95Z"/>
      <path class="cls-2" d="M166.38,57.25c9.59-.44,18.87,8.02,18.82,18.88-.04,10.34-8.73,18.9-19.12,18.81-10.05-.09-19.1-8.75-18.68-19.71.37-9.6,8.81-18.44,18.97-17.98Z"/>
      <path class="cls-2" d="M101.07,57.25c9.88-.48,19.15,8.41,18.91,19.27-.21,9.29-8.19,18.53-19.14,18.41-10.17-.11-18.86-8.7-18.67-19.24.18-10.42,9.19-18.9,18.9-18.44Z"/>
      <path class="cls-3" d="M34.1,163.2c-10.48-.02-18.9-8.52-18.79-19.11.11-10.19,8.21-18.66,18.94-18.6,10.82.06,18.78,8.54,18.82,18.99.04,10.31-8.58,18.75-18.97,18.73Z"/>
      <path class="cls-3" d="M119.12,27.33c0,10.31-8.55,18.9-18.88,18.82-10.45-.09-18.9-8.19-18.87-18.93.04-10.73,8.48-18.73,18.86-18.82,10.38-.09,18.89,8.52,18.89,18.94Z"/>
      <path class="cls-3" d="M100.19,174.77c10.49,0,18.95,8.41,18.93,18.85-.02,10.01-7.82,18.8-18.83,18.83-10.89.03-18.93-8.49-18.92-18.85,0-11.17,9.19-18.93,18.82-18.84Z"/>
      <path class="cls-3" d="M114.38,110.47c-.29-9.21,7.27-18.77,18.81-18.78,11.24,0,18.98,9.29,18.85,19.05-.13,10.29-8.49,18.65-18.88,18.66-10.99,0-19.15-9.28-18.78-18.93Z"/>
      <path class="cls-3" d="M34.11,57.26c9.13-.37,18.84,7.1,18.89,18.69.05,11.28-9.24,19.03-18.97,18.93-10.4-.1-18.76-8.44-18.77-18.88,0-10.69,8.97-19.03,18.85-18.74Z"/>
      <path class="cls-3" d="M185.14,144.31c0,10.49-8.4,18.9-18.88,18.88-11.26-.02-18.89-9.57-18.84-18.95.05-9.05,7.22-18.71,18.78-18.76,11.29-.05,19.04,9.16,18.93,18.83Z"/>
      <path class="cls-3" d="M68.02,36.64c8.3,0,14.85,6.63,14.89,14.96.03,6.93-5.35,14.77-14.93,14.83-8.31.05-14.89-6.49-14.96-14.92-.08-8.21,6.7-14.86,15-14.86Z"/>
      <path class="cls-3" d="M133.97,36.64c8.2,0,14.95,6.68,14.89,14.86-.06,8.14-6.32,14.94-14.96,14.93-8.88,0-14.96-7.13-14.93-15.06.03-8.16,6.72-14.73,15-14.72Z"/>
      <path class="cls-3" d="M133.91,182.63c-7.36.31-14.94-5.91-14.94-14.87,0-8.83,7.49-14.93,14.98-14.89,7.62.04,14.88,6.2,14.9,14.87.02,8.97-7.57,15.18-14.94,14.89Z"/>
      <path class="cls-3" d="M67.87,182.63c-8.19,0-14.93-6.69-14.85-14.87.08-8.97,7.61-15.05,15.12-14.87,8.22.19,14.77,6.67,14.76,14.96,0,8.33-7.05,15.09-15.03,14.78Z"/>
      <path class="cls-3" d="M8.06,110.61c0-6.78,5.39-12.35,12.1-12.25,6.95.1,12.24,5.32,12.21,12.17-.03,7.72-6.28,12.19-12.06,12.16-6.84-.03-12.23-5.32-12.24-12.08Z"/>
      <path class="cls-3" d="M190.91,110.57c.32,6.57-5.59,12.19-12.06,12.12-6.82-.08-12.16-5.36-12.15-12.19,0-6.72,5.4-12.23,12.09-12.15,7.51.08,12.44,6.29,12.12,12.22Z"/>
    </g>
  </g>
</svg>